<?xml version="1.0" encoding="UTF-8"?>
<svg width="24px" height="24px" viewBox="0 0 24 24" version="1.1" xmlns="http://www.w3.org/2000/svg" xmlns:xlink="http://www.w3.org/1999/xlink">
    <title>9B3CE8E4-7617-46B6-A0FC-52982A3D9646</title>
    <g id="🔥-Presentation" stroke="none" stroke-width="1" fill="none" fill-rule="evenodd">
        <g id="Buttons" transform="translate(-152.000000, -4672.000000)">
            <g id="Tertiary" transform="translate(76.000000, 3728.000000)">
                <g id="Icons" transform="translate(4.000000, 920.000000)">
                    <rect id="Rectangle" fill="#37474F" x="0" y="0" width="696" height="120"></rect>
                    <g id="All/Icon/Add" transform="translate(72.000000, 24.000000)" fill="#FFFFFF">
                        <path d="M12,2 C17.5228475,2 22,6.4771525 22,12 C22,17.5228475 17.5228475,22 12,22 C6.4771525,22 2,17.5228475 2,12 C2,6.4771525 6.4771525,2 12,2 Z M12,4 C7.581722,4 4,7.581722 4,12 C4,16.418278 7.581722,20 12,20 C16.418278,20 20,16.418278 20,12 C20,7.581722 16.418278,4 12,4 Z M12,5.9324307 C12.5569494,5.9324307 13.0084462,6.38392743 13.0084462,6.94087687 L13.0084462,10.9915538 L17.0591231,10.9915538 C17.6160726,10.9915538 18.0675693,11.4430506 18.0675693,12 C18.0675693,12.5569494 17.6160726,13.0084462 17.0591231,13.0084462 L13.0084462,13.0084462 L13.0084462,17.0591231 C13.0084462,17.6160726 12.5569494,18.0675693 12,18.0675693 C11.4430506,18.0675693 10.9915538,17.6160726 10.9915538,17.0591231 L10.9915538,13.0084462 L6.94087687,13.0084462 C6.38392743,13.0084462 5.9324307,12.5569494 5.9324307,12 C5.9324307,11.4430506 6.38392743,10.9915538 6.94087687,10.9915538 L10.9915538,10.9915538 L10.9915538,6.94087687 C10.9915538,6.38392743 11.4430506,5.9324307 12,5.9324307 Z" id="Add"></path>
                    </g>
                </g>
            </g>
        </g>
    </g>
</svg>