<?xml version="1.0" encoding="UTF-8"?>
<svg width="24px" height="24px" viewBox="0 0 24 24" version="1.1" xmlns="http://www.w3.org/2000/svg" xmlns:xlink="http://www.w3.org/1999/xlink">
    <title>8477BD32-0343-4783-999B-927A51B24047</title>
    <g id="🔥-Presentation" stroke="none" stroke-width="1" fill="none" fill-rule="evenodd">
        <g id="Buttons" transform="translate(-200.000000, -4672.000000)">
            <g id="Tertiary" transform="translate(76.000000, 3728.000000)">
                <g id="Icons" transform="translate(4.000000, 920.000000)">
                    <rect id="Rectangle" fill="#37474F" x="0" y="0" width="696" height="120"></rect>
                    <g id="All/Icon/Back" transform="translate(120.000000, 24.000000)" fill="#FFFFFF">
                        <path d="M8.75735931,13 L12.7071068,16.9497475 C13.0976311,17.3402718 13.0976311,17.9734367 12.7071068,18.363961 C12.3165825,18.7544853 11.6834175,18.7544853 11.2928932,18.363961 L5.63603897,12.7071068 C5.24551468,12.3165825 5.24551468,11.6834175 5.63603897,11.2928932 L11.2928932,5.63603897 C11.6834175,5.24551468 12.3165825,5.24551468 12.7071068,5.63603897 C13.0976311,6.02656326 13.0976311,6.65972824 12.7071068,7.05025253 L8.75735931,11 L17.3137085,11 C17.8659932,11 18.3137085,11.4477153 18.3137085,12 C18.3137085,12.5522847 17.8659932,13 17.3137085,13 L8.75735931,13 Z" id="Back"></path>
                    </g>
                </g>
            </g>
        </g>
    </g>
</svg>