<?xml version="1.0" encoding="UTF-8"?>
<svg width="24px" height="24px" viewBox="0 0 24 24" version="1.1" xmlns="http://www.w3.org/2000/svg" xmlns:xlink="http://www.w3.org/1999/xlink">
    <title>28911613-83DA-46CC-9CC1-0A578DAE2393</title>
    <g id="🔥-Presentation" stroke="none" stroke-width="1" fill="none" fill-rule="evenodd">
        <g id="Buttons" transform="translate(-536.000000, -4720.000000)">
            <g id="Tertiary" transform="translate(76.000000, 3728.000000)">
                <g id="Icons" transform="translate(4.000000, 920.000000)">
                    <rect id="Rectangle" fill="#37474F" x="0" y="0" width="696" height="120"></rect>
                    <g id="All/Icon/Search" transform="translate(456.000000, 72.000000)" fill="#FFFFFF">
                        <path d="M14.1284348,15.6535611 C12.9710109,16.5001944 11.5438734,17 10,17 C6.13400675,17 3,13.8659932 3,10 C3,6.13400675 6.13400675,3 10,3 C13.8659932,3 17,6.13400675 17,10 C17,11.6007595 16.4626838,13.0760221 15.55857,14.2552692 L19.7225866,18.4192857 C20.1131109,18.80981 20.1131109,19.442975 19.7225866,19.8334993 C19.3320623,20.2240236 18.6988973,20.2240236 18.308373,19.8334993 L14.1284348,15.6535611 L14.1284348,15.6535611 Z M10,15 C12.7614237,15 15,12.7614237 15,10 C15,7.23857625 12.7614237,5 10,5 C7.23857625,5 5,7.23857625 5,10 C5,12.7614237 7.23857625,15 10,15 Z" id="Search"></path>
                    </g>
                </g>
            </g>
        </g>
    </g>
</svg>