<?xml version="1.0" encoding="UTF-8"?>
<svg width="24px" height="24px" viewBox="0 0 24 24" version="1.1" xmlns="http://www.w3.org/2000/svg" xmlns:xlink="http://www.w3.org/1999/xlink">
    <title>20745EEC-4D9F-41DB-AE29-F032A6EEA551</title>
    <g id="🔥-Presentation" stroke="none" stroke-width="1" fill="none" fill-rule="evenodd">
        <g id="Buttons" transform="translate(-392.000000, -4672.000000)">
            <g id="Tertiary" transform="translate(76.000000, 3728.000000)">
                <g id="Icons" transform="translate(4.000000, 920.000000)">
                    <rect id="Rectangle" fill="#37474F" x="0" y="0" width="696" height="120"></rect>
                    <g id="All/Icon/Chevron-Down" transform="translate(312.000000, 24.000000)" fill="#FFFFFF">
                        <path d="M7.09375,9.78125 C7.03124968,9.71875 7,9.625 7,9.5 C7,9.354166 7.05208282,9.234376 7.15625,9.140624 C7.2604172,9.046874 7.385416,9 7.53125,9 L16.46875,9 C16.614584,9 16.739582,9.046874 16.84375,9.140624 C16.947918,9.234376 17,9.354166 17,9.5 C17,9.604168 16.96875,9.6875 16.90625,9.75 L16.84375,9.84375 L12.59375,14.71875 C12.40625,14.9062509 12.208334,15 12,15 C11.791666,15 11.59375,14.9062509 11.40625,14.71875 L7.15625,9.84375 L7.09375,9.78125 Z" id="User-Menu-Select-Icon"></path>
                    </g>
                </g>
            </g>
        </g>
    </g>
</svg>