<?xml version="1.0" encoding="UTF-8"?>
<svg width="24px" height="24px" viewBox="0 0 24 24" version="1.1" xmlns="http://www.w3.org/2000/svg" xmlns:xlink="http://www.w3.org/1999/xlink">
    <title>2B1C9505-D033-41E1-AEA9-EB6EE1ED4DBD</title>
    <g id="🔥-Presentation" stroke="none" stroke-width="1" fill="none" fill-rule="evenodd">
        <g id="Buttons" transform="translate(-440.000000, -4672.000000)">
            <g id="Tertiary" transform="translate(76.000000, 3728.000000)">
                <g id="Icons" transform="translate(4.000000, 920.000000)">
                    <rect id="Rectangle" fill="#37474F" x="0" y="0" width="696" height="120"></rect>
                    <g id="All/Icon/Close" transform="translate(360.000000, 24.000000)" fill="#FFFFFF">
                        <path d="M12,10.5738418 L16.2784747,6.29536704 C16.6722974,5.90154432 17.3108102,5.90154432 17.704633,6.29536704 C18.0984557,6.68918977 18.0984557,7.32770256 17.704633,7.72152528 L13.4261582,12 L17.704633,16.2784747 C18.0984557,16.6722974 18.0984557,17.3108102 17.704633,17.704633 C17.3108102,18.0984557 16.6722974,18.0984557 16.2784747,17.704633 L12,13.4261582 L7.72152528,17.704633 C7.32770256,18.0984557 6.68918977,18.0984557 6.29536704,17.704633 C5.90154432,17.3108102 5.90154432,16.6722974 6.29536704,16.2784747 L10.5738418,12 L6.29536704,7.72152528 C5.90154432,7.32770256 5.90154432,6.68918977 6.29536704,6.29536704 C6.68918977,5.90154432 7.32770256,5.90154432 7.72152528,6.29536704 L12,10.5738418 Z" id="Close"></path>
                    </g>
                </g>
            </g>
        </g>
    </g>
</svg>