<?xml version="1.0" encoding="UTF-8"?>
<svg width="24px" height="24px" viewBox="0 0 24 24" version="1.1" xmlns="http://www.w3.org/2000/svg" xmlns:xlink="http://www.w3.org/1999/xlink">
    <title>CBC91E27-3766-4A57-93C9-023032CAD7C5</title>
    <g id="🔥-Presentation" stroke="none" stroke-width="1" fill="none" fill-rule="evenodd">
        <g id="Buttons" transform="translate(-488.000000, -4672.000000)">
            <g id="Tertiary" transform="translate(76.000000, 3728.000000)">
                <g id="Icons" transform="translate(4.000000, 920.000000)">
                    <rect id="Rectangle" fill="#37474F" x="0" y="0" width="696" height="120"></rect>
                    <g id="All/Icon/Color" transform="translate(408.000000, 24.000000)" fill="#FFFFFF">
                        <path d="M3.49729144,17.157934 C1.7108397,14.064033 1.7108397,10.2517565 3.49732477,7.15779774 C5.28405087,4.06389769 8.58516946,2.15789474 12.1575606,2.15789474 C17.6556842,2.15789474 22.1574568,6.15871497 22.1574568,11.1576707 C22.1574568,12.7488731 21.5255711,14.2743937 20.4002244,15.4009061 C19.2753066,16.5259238 17.7488311,17.1582147 16.1579286,17.1582147 L14.3863701,17.1582135 C14.1885335,17.1578947 14.0101009,17.2732914 13.9290497,17.4538614 C13.8485545,17.633576 13.8813256,17.8439042 14.012613,17.9904737 C14.6687197,18.7231157 14.8335639,19.7728494 14.4346056,20.6724771 C14.0349244,21.5717707 13.1458613,22.1531924 12.1576806,22.1578947 C8.58489576,22.1578947 5.28381186,20.251954 3.49729144,17.157934 Z M12.1575606,4.15789474 C9.29969195,4.15789474 6.65874543,5.68272051 5.22928022,8.15796288 C3.80017121,10.6330167 3.80017677,13.6828061 5.22929688,16.1578554 C6.65855361,18.6331414 9.29942205,20.1579061 12.1529106,20.1579061 C12.3490249,20.1569706 12.5267387,20.0407509 12.6066504,19.8609482 C12.686505,19.6808807 12.6535102,19.470769 12.5227956,19.3248065 C11.8646688,18.5900728 11.7005297,17.5366116 12.1041044,16.6355864 C12.5083918,15.73489 13.4025359,15.1566567 14.3879499,15.1582147 L16.1579286,15.1582147 C17.2183817,15.1582147 18.2361182,14.7366518 18.9856134,13.9870902 C19.7361293,13.2357967 20.1574526,12.2186165 20.1574526,11.1576707 C20.1574526,7.31928124 16.6002246,4.15789474 12.1575606,4.15789474 Z M8,11 C8,11.552496 7.551872,12 7,12 C6.447504,12 6,11.552496 6,11 C6,10.448128 6.447504,10 7,10 C7.551872,10 8,10.448128 8,11 Z M11,8 C11,8.552496 10.551872,9 10,9 C9.447504,9 9,8.552496 9,8 C9,7.448128 9.447504,7 10,7 C10.551872,7 11,7.448128 11,8 Z M15,8 C15,8.552496 14.552496,9 14,9 C13.448128,9 13,8.552496 13,8 C13,7.448128 13.448128,7 14,7 C14.552496,7 15,7.448128 15,8 Z M18,11 C18,11.552496 17.552496,12 17,12 C16.448128,12 16,11.552496 16,11 C16,10.448128 16.448128,10 17,10 C17.552496,10 18,10.448128 18,11 Z" id="Palette"></path>
                    </g>
                </g>
            </g>
        </g>
    </g>
</svg>