<?xml version="1.0" encoding="UTF-8"?>
<svg width="24px" height="24px" viewBox="0 0 24 24" version="1.1" xmlns="http://www.w3.org/2000/svg" xmlns:xlink="http://www.w3.org/1999/xlink">
    <title>2C60DCA6-C0D3-4E81-BC54-1AB2D65DC673</title>
    <g id="🔥-Presentation" stroke="none" stroke-width="1" fill="none" fill-rule="evenodd">
        <g id="Buttons" transform="translate(-680.000000, -4672.000000)">
            <g id="Tertiary" transform="translate(76.000000, 3728.000000)">
                <g id="Icons" transform="translate(4.000000, 920.000000)">
                    <rect id="Rectangle" fill="#37474F" x="0" y="0" width="696" height="120"></rect>
                    <g id="All/Icon/Gear" transform="translate(600.000000, 24.000000)" fill="#FFFFFF">
                        <path d="M7.05084995,5.35736134 C7.38613982,5.36663779 7.7365776,5.42523547 8.07320433,5.52129129 C8.15543987,5.22016218 8.27173854,4.92656486 8.42034172,4.66202583 L8.43458935,4.63708374 C8.91793284,3.80486874 9.7319288,3.1954789 10.7890545,3.06847381 C11.5783682,2.9757168 12.4070392,2.97713824 13.2005875,3.07310673 C14.247514,3.2018454 15.0574573,3.8089126 15.554454,4.66150503 C15.7062602,4.9305988 15.8248377,5.22994603 15.9081415,5.53803822 C16.2501402,5.4412244 16.6122435,5.38187789 16.9682114,5.37280183 C17.9192364,5.36156968 18.8471726,5.71233179 19.5050473,6.521432 C19.9970276,7.12992291 20.4200642,7.81849096 20.7355901,8.52938475 C21.1762768,9.5247994 21.0189943,10.555135 20.4688664,11.4147338 C20.3303347,11.6238037 20.1630752,11.8233916 19.9773055,12.0070421 C20.1684904,12.1962116 20.3433558,12.4051222 20.4916613,12.6286037 C21.0247458,13.45859 21.1853962,14.4864655 20.7466955,15.4880604 C20.4337375,16.197065 20.0123493,16.8857293 19.5201169,17.4959993 C18.8629879,18.3080076 17.9291991,18.6578275 16.949064,18.6427353 C16.6139179,18.6334444 16.2632189,18.5747612 15.9263632,18.4786188 C15.8423601,18.7835255 15.7224895,19.083717 15.5670988,19.3601714 C15.0841938,20.194788 14.2678265,20.8057714 13.2133131,20.9307203 C12.4238889,21.0241882 11.5946313,21.0229436 10.8000498,20.9268502 C9.75312317,20.7981115 8.94317993,20.1910443 8.44618297,19.3384514 C8.29444141,19.0694721 8.17592954,18.7703423 8.09253402,18.4618704 C7.74960623,18.5589313 7.38693781,18.6181707 7.03185352,18.6265969 C6.07977076,18.637862 5.15075325,18.2870799 4.49656474,17.479191 C4.0045576,16.8716456 3.58153937,16.182975 3.26456758,15.4695379 C2.82438208,14.4737138 2.98144908,13.4421509 3.53175566,12.5852365 C3.67016339,12.3763538 3.83733529,12.1767644 4.02315566,11.9929732 C3.83178941,11.8034831 3.65694725,11.5943094 3.50895574,11.3708028 C2.97533559,10.539975 2.81410963,9.5122735 3.25399722,8.51175287 C3.56736192,7.80199257 3.9884567,7.11334494 4.48163249,6.50215282 C5.13871074,5.69169083 6.07158792,5.34228381 7.05084995,5.35736134 Z M4.74602536,11.4287508 C4.77985544,11.398789 4.816363,11.3722451 4.85507258,11.3496519 C4.81111172,11.3757151 4.76735286,11.4027808 4.72387922,11.4307956 L4.74602536,11.4287508 Z M7.97170844,17.7338444 C7.96110493,17.6872836 7.95446264,17.6384797 7.95218036,17.587766 C7.95497957,17.6417001 7.9589118,17.6959458 7.96396691,17.7503911 L7.97170844,17.7338444 Z M10.1632616,5.64182018 C10.0214866,5.89420386 9.94099039,6.2342557 9.92837969,6.50004761 C9.91095848,6.92665265 9.6562501,7.34040692 9.24112751,7.5626435 C8.82721986,7.7843226 8.31298028,7.7843226 7.90388622,7.58609506 C7.6521798,7.46548522 7.29834213,7.36497345 6.99557777,7.35659687 C6.66577731,7.35157093 6.28971712,7.44705389 6.03439666,7.76197458 C5.65593706,8.23100568 5.32612122,8.76873615 5.08282706,9.31978909 C4.92423987,9.68049648 5.02275401,10.0278099 5.19095916,10.2896994 C5.34894658,10.5281317 5.61747751,10.7615323 5.8547739,10.9028048 C6.23624777,11.1267138 6.49395196,11.5304191 6.49456711,11.9933179 C6.49576821,12.4556591 6.24046159,12.856577 5.86258654,13.0771268 C5.62529015,13.217839 5.35615944,13.4517999 5.19817187,13.6902321 C5.02935771,13.9532223 4.93383937,14.3005358 5.09304326,14.6607 C5.33815213,15.2123819 5.66975192,15.7506555 6.05002623,16.2202298 C6.30413176,16.534037 6.67839262,16.6306392 7.00820846,16.6267368 C7.31098819,16.6194781 7.66541027,16.520087 7.91713207,16.4000403 C8.32322724,16.2040485 8.83746682,16.2040485 9.25497313,16.4285178 C9.67309461,16.6535419 9.93019902,17.0706553 9.94942264,17.4978179 C9.96323904,17.7636099 10.0449394,18.1031041 10.1873188,18.3554879 C10.345906,18.6274122 10.6216496,18.8898592 11.0439695,18.9417911 C11.6765497,19.0182895 12.3463776,19.0194059 12.9783273,18.9445831 C13.4024465,18.8943294 13.67879,18.6313335 13.8367774,18.3582799 C13.9785523,18.1058963 14.0596484,17.7658444 14.072259,17.5000521 C14.0896803,17.0734471 14.3443886,16.6596928 14.7588961,16.4374562 C15.1728037,16.2157771 15.6870433,16.2157771 16.0961374,16.4140046 C16.3478438,16.5346145 16.7022812,16.6351262 17.0044458,16.6435028 C17.3342463,16.6485288 17.7109216,16.5530458 17.9662267,16.2375676 C18.3440862,15.769094 18.6745018,15.2313635 18.917796,14.680182 C19.0757834,14.3194746 18.977869,13.9716036 18.8096624,13.7097141 C18.6516749,13.4718394 18.3825442,13.2384388 18.1452478,13.0971662 C17.7637743,12.8732572 17.5066699,12.469552 17.5054549,12.0066532 C17.5048536,11.5443119 17.7601602,11.1433941 18.1380351,10.9222868 C18.3753315,10.7815746 18.6444622,10.5481712 18.8024497,10.3097389 C18.970664,10.0467487 19.0667821,9.69887778 18.9075783,9.33927106 C18.6624694,8.78703168 18.3302698,8.24875802 17.9505956,7.77916943 C17.6958903,7.46591977 17.3222292,7.36876006 16.9918136,7.37266246 C16.6890339,7.38048012 16.3352116,7.47987121 16.0835051,7.59991641 C15.67741,7.79590829 15.1631704,7.79590829 14.7456641,7.57143891 C14.3269428,7.3464149 14.0698384,6.92930142 14.0506148,6.5021389 C14.0373982,6.23634698 13.9556978,5.89685263 13.8133184,5.64446895 C13.6547312,5.37254469 13.3789876,5.11009769 12.9566677,5.05816577 C12.3240875,4.98166733 11.6542596,4.98055093 11.0223099,5.05481514 C10.5981922,5.10577217 10.3218488,5.36876666 10.1632616,5.64182018 Z M12,16 C9.790861,16 8,14.209139 8,12 C8,9.790861 9.790861,8 12,8 C14.209139,8 16,9.790861 16,12 C16,14.209139 14.209139,16 12,16 Z M12,14 C13.1045695,14 14,13.1045695 14,12 C14,10.8954305 13.1045695,10 12,10 C10.8954305,10 10,10.8954305 10,12 C10,13.1045695 10.8954305,14 12,14 Z" id="Gear"></path>
                    </g>
                </g>
            </g>
        </g>
    </g>
</svg>