<?xml version="1.0" encoding="UTF-8"?>
<svg width="24px" height="24px" viewBox="0 0 24 24" version="1.1" xmlns="http://www.w3.org/2000/svg" xmlns:xlink="http://www.w3.org/1999/xlink">
    <title>A07C0133-7984-481D-B5E9-FD6C982F43C6</title>
    <g id="🔥-Presentation" stroke="none" stroke-width="1" fill="none" fill-rule="evenodd">
        <g id="Buttons" transform="translate(-728.000000, -4672.000000)">
            <g id="Tertiary" transform="translate(76.000000, 3728.000000)">
                <g id="Icons" transform="translate(4.000000, 920.000000)">
                    <rect id="Rectangle" fill="#37474F" x="0" y="0" width="696" height="120"></rect>
                    <g id="All/Icon/Heart" transform="translate(648.000000, 24.000000)" fill="#FFFFFF">
                        <path d="M7.92818182,3.54545455 C4.51498286,3.54545455 2,6.5605776 2,10.1672476 C2,13.8140213 3.69349388,16.1783357 7.49597095,18.8153817 C8.03905347,19.1920135 8.62452909,19.5776954 9.40492601,20.0773181 C9.64192269,20.2290472 11.0426574,21.1189954 11.4594811,21.3867864 L12,21.7340461 L12.5405189,21.3867864 C12.9573426,21.1189954 14.3580773,20.2290472 14.595074,20.0773181 C15.3754709,19.5776954 15.9609465,19.1920135 16.5040291,18.8153817 C20.3065061,16.1783357 22,13.8140213 22,10.1672476 C22,6.56059937 19.4849045,3.54545455 16.0718182,3.54545455 C14.5595969,3.54545455 13.0859615,4.12024509 12.0002597,4.91750586 C10.9152628,4.12059168 9.44032448,3.54545455 7.92818182,3.54545455 Z M10.4832916,18.3929406 C9.72182951,17.9054403 9.15496112,17.5320158 8.6357234,17.1719206 C5.31759612,14.8707748 4,13.0312573 4,10.1672476 C4,7.59303461 5.7079332,5.54545455 7.92818182,5.54545455 C9.22330706,5.54545455 10.5531683,6.19242166 11.2906586,6.93459548 L11.9993534,7.64779098 L12.7086984,6.93524202 C13.4488996,6.19169733 14.7770208,5.54545455 16.0718182,5.54545455 C18.2919738,5.54545455 20,7.59306924 20,10.1672476 C20,13.0312573 18.6824039,14.8707748 15.3642766,17.1719206 C14.8450389,17.5320158 14.2781705,17.9054403 13.5167084,18.3929406 C13.3495115,18.4999827 12.5775722,18.9906586 12,19.3587956 C11.4224278,18.9906586 10.6504885,18.4999827 10.4832916,18.3929406 Z" id="Icon"></path>
                    </g>
                </g>
            </g>
        </g>
    </g>
</svg>