<?xml version="1.0" encoding="UTF-8"?>
<svg width="24px" height="24px" viewBox="0 0 24 24" version="1.1" xmlns="http://www.w3.org/2000/svg" xmlns:xlink="http://www.w3.org/1999/xlink">
    <title>DDF103A6-62E8-4D2C-A1ED-89FFC3AE1622</title>
    <g id="🔥-Presentation" stroke="none" stroke-width="1" fill="none" fill-rule="evenodd">
        <g id="Buttons" transform="translate(-104.000000, -4720.000000)">
            <g id="Tertiary" transform="translate(76.000000, 3728.000000)">
                <g id="Icons" transform="translate(4.000000, 920.000000)">
                    <rect id="Rectangle" fill="#37474F" x="0" y="0" width="696" height="120"></rect>
                    <g id="All/Icon/Idea" transform="translate(24.000000, 72.000000)" fill="#FFFFFF">
                        <path d="M15.0086033,16.2872307 L15.0086033,19 L9.00067139,19 L9.00067139,18 L9.0006811,16.2892067 C6.63736588,15.0282439 5.0019278,12.6126259 5,10.0668358 C4.99798472,6.16175266 8.12574408,3 11.9999014,3 C15.8742088,3 19.0020194,6.16169168 19,10.0667685 C18.9990229,12.6139635 17.3659292,15.0300981 15.0086033,16.2872307 Z M13.0086033,15.9603843 C13.0086033,15.3996641 13.3277454,14.8879997 13.837631,14.638671 C15.7017206,13.7449344 16.9993183,11.9062978 16.9999998,10.0659495 C17.0014807,7.26109431 14.7646353,5 11.9999014,5 C9.23535223,5 6.9985526,7.26110975 6.99999985,10.0655626 C7.00139241,11.9045047 8.30207375,13.744072 10.1624815,14.6363665 C10.6725052,14.8775433 10.9979492,15.3915481 11.0006714,15.9603843 L11.0006714,17 L13.0086033,17 L13.0086033,15.9603843 Z M9,20 L15,20 L15,21 L9,21 L9,20 Z" id="Shape"></path>
                    </g>
                </g>
            </g>
        </g>
    </g>
</svg>