<?xml version="1.0" encoding="UTF-8"?>
<svg width="24px" height="24px" viewBox="0 0 24 24" version="1.1" xmlns="http://www.w3.org/2000/svg" xmlns:xlink="http://www.w3.org/1999/xlink">
    <title>D08D999F-661D-4481-B120-C6155F95DB86</title>
    <g id="🔥-Presentation" stroke="none" stroke-width="1" fill="none" fill-rule="evenodd">
        <g id="Buttons" transform="translate(-584.000000, -4672.000000)">
            <g id="Tertiary" transform="translate(76.000000, 3728.000000)">
                <g id="Icons" transform="translate(4.000000, 920.000000)">
                    <rect id="Rectangle" fill="#37474F" x="0" y="0" width="696" height="120"></rect>
                    <g id="All/Icon/Eye" transform="translate(504.000000, 24.000000)" fill="#FFFFFF">
                        <path d="M3.05125971,12.3160567 L2.94597077,12 L3.05125971,11.6839433 C4.3721872,7.71877826 7.93420275,5 12,5 C16.0657972,5 19.6278128,7.71877826 20.9487403,11.6839433 L21.0540292,12 L20.9487403,12.3160567 C19.6278128,16.2812217 16.0657972,19 12,19 C7.93420275,19 4.3721872,16.2812217 3.05125971,12.3160567 Z M12,17 C15.0749682,17 17.806161,14.994271 18.9388939,12 C17.806161,9.005729 15.0749682,7 12,7 C8.92503181,7 6.193839,9.005729 5.06110609,12 C6.193839,14.994271 8.92503181,17 12,17 Z M12,9 L12,12 L14.1213203,9.87867966 C14.6642136,10.4215729 15,11.1715729 15,12 C15,13.6568542 13.6568542,15 12,15 C10.3431458,15 9,13.6568542 9,12 C9,10.3431458 10.3431458,9 12,9 L12,9 Z" id="Shape"></path>
                    </g>
                </g>
            </g>
        </g>
    </g>
</svg>