<?xml version="1.0" encoding="UTF-8"?>
<svg width="24px" height="24px" viewBox="0 0 24 24" version="1.1" xmlns="http://www.w3.org/2000/svg" xmlns:xlink="http://www.w3.org/1999/xlink">
    <title>5B539CF5-F77C-4142-8D2F-5C7948B66EFC</title>
    <g id="🔥-Presentation" stroke="none" stroke-width="1" fill="none" fill-rule="evenodd">
        <g id="Buttons" transform="translate(-200.000000, -4720.000000)">
            <g id="Tertiary" transform="translate(76.000000, 3728.000000)">
                <g id="Icons" transform="translate(4.000000, 920.000000)">
                    <rect id="Rectangle" fill="#37474F" x="0" y="0" width="696" height="120"></rect>
                    <g id="All/Icon/Launch" transform="translate(120.000000, 72.000000)" fill="#FFFFFF">
                        <path d="M5.41888181,11.7812348 L6.1990659,11.0009075 L9.94758388,11.0009075 C10.2797151,11.0009075 10.5901742,10.8360056 10.7761376,10.560817 L11.0380398,10.1732543 C11.4717121,9.53187379 11.9659599,8.93246587 12.5070626,8.39266724 C13.049687,7.84994445 13.6495898,7.35510688 14.2902151,6.92082475 C14.9332971,6.48684015 15.6208787,6.11360156 16.331565,5.81320049 C17.0586698,5.505575 17.8175034,5.27002111 18.5859124,5.11377422 C18.7086692,5.0886832 18.8320173,5.0654945 18.955833,5.04422461 C18.9346079,5.16773701 18.911464,5.29083206 18.8864139,5.41343304 C18.7279343,6.1861573 18.4929616,6.94419722 18.1867514,7.6695973 C17.8862578,8.38077389 17.513105,9.06809049 17.0788377,9.71041125 C16.6507634,10.3455899 16.1563074,10.9444639 15.6087719,11.4920999 C15.0638962,12.0370757 14.4637554,12.5324656 13.8277984,12.9621718 L13.4401031,13.2232255 C13.1641186,13.4090601 12.9986362,13.7199887 12.9986362,14.0527077 L12.9986362,17.8005292 L12.2188194,18.5804893 L12.2188194,17.9236287 C12.2188194,17.371344 11.7711042,16.9236287 11.2188194,16.9236287 C10.6665347,16.9236287 10.2188194,17.371344 10.2188194,17.9236287 L10.2188194,20.8345066 C10.2188194,21.1173868 10.3312061,21.3886783 10.5312507,21.588687 C10.9477736,22.0051355 11.6230306,22.0050744 12.0394781,21.5885504 L14.705808,18.9217308 C14.8933046,18.7341997 14.9986362,18.4798736 14.9986362,18.214689 L14.9986362,14.5846313 C15.7222226,14.0909039 16.4030738,13.526339 17.0231153,12.9061836 C17.6608791,12.2683028 18.237193,11.5702843 18.7365227,10.8293743 C19.2426368,10.0807875 19.6779234,9.27902566 20.0291807,8.4477067 C20.3867516,7.60063503 20.6607638,6.71665082 20.8457815,5.81452912 C20.9699214,5.20696108 21.053831,4.59013659 21.0966047,3.96976919 C21.1383533,3.36427147 20.6354696,2.86149208 20.0299805,2.90336623 C19.4101933,2.94622922 18.7920094,3.03029837 18.1863951,3.15408423 C17.288078,3.33674586 16.4017144,3.61188706 15.5525815,3.97114061 C14.7228075,4.32187898 13.9213622,4.75692598 13.1697018,5.26418789 C12.423051,5.77034245 11.7252796,6.3459082 11.0936378,6.977666 C10.476996,7.59282043 9.91324447,8.27341926 9.41661903,9.00090746 L5.78479855,9.00090746 C5.51955024,9.00090746 5.2651685,9.10628951 5.07762685,9.29386561 L2.41126789,11.9607143 C2.21130698,12.1607119 2.0989733,12.4319448 2.0989733,12.714758 C2.0989733,13.3037564 2.57645061,13.7812348 3.16544993,13.7812348 L5.66119891,13.7812348 L6.68845915,14.8098738 L6.92702346,15.0781908 L3.62110368,18.3841185 C3.23057986,18.7746433 3.23058062,19.4078083 3.62110539,19.7983321 C4.01163015,20.1888559 4.64479513,20.1888552 5.03531895,19.7983304 L9.008055,15.8255847 C9.38282157,15.4508173 9.40010419,14.8487476 9.04745266,14.4530993 L8.14254526,13.4378619 L6.78338617,12.0746024 C6.59581138,11.8867759 6.34125423,11.7812348 6.07580536,11.7812348 L5.41888181,11.7812348 Z" id="Path"></path>
                    </g>
                </g>
            </g>
        </g>
    </g>
</svg>