<?xml version="1.0" encoding="UTF-8"?>
<svg width="24px" height="24px" viewBox="0 0 24 24" version="1.1" xmlns="http://www.w3.org/2000/svg" xmlns:xlink="http://www.w3.org/1999/xlink">
    <title>F43AC92F-B52A-4827-A3B0-A5E2A9C93D31</title>
    <g id="🔥-Presentation" stroke="none" stroke-width="1" fill="none" fill-rule="evenodd">
        <g id="Buttons" transform="translate(-296.000000, -4720.000000)">
            <g id="Tertiary" transform="translate(76.000000, 3728.000000)">
                <g id="Icons" transform="translate(4.000000, 920.000000)">
                    <rect id="Rectangle" fill="#37474F" x="0" y="0" width="696" height="120"></rect>
                    <g id="All/Icon/Loading" transform="translate(216.000000, 72.000000)" fill="#FFFFFF">
                        <g id="Loading" transform="translate(4.000000, 4.000000)">
                            <path d="M7.63418182,14.01 C8.13489091,14.01 8.54894545,14.4247636 8.54894545,14.9262 C8.54894545,15.4276365 8.1356,15.8424002 7.63418182,15.8424002 C7.13276364,15.8424002 6.71798182,15.4276365 6.71798182,14.9262 C6.71798182,14.4247636 7.13274545,14.01 7.63418182,14.01 Z M9.91472727,13.5987273 C10.5177091,13.5987273 11.0148727,14.0958909 11.0148727,14.6988727 C11.0148727,15.3018544 10.5177091,15.799018 9.91472727,15.799018 C9.31174545,15.799018 8.81458182,15.3025635 8.81458182,14.6988727 C8.81458182,14.0958909 9.31103636,13.5987273 9.91472727,13.5987273 Z M12.3309091,12.0610909 C13.0347455,12.0610909 13.6142909,12.6392182 13.6142909,13.3444727 C13.6142909,14.0497273 13.0354545,14.6299818 12.3309091,14.6299818 C11.6249455,14.6299818 11.0454,14.0504364 11.0454,13.3444727 C11.0454,12.6385091 11.6263636,12.0610909 12.3309091,12.0610909 Z M14.0596364,9.20236364 C14.8664545,9.20236364 15.5283818,9.86429091 15.5283818,10.6711091 C15.5283818,11.4779273 14.8664545,12.1398545 14.0596364,12.1398545 C13.2535273,12.1398545 12.5908909,11.4786364 12.5908909,10.6711091 C12.5908909,9.86358182 13.2542364,9.20236364 14.0596364,9.20236364 Z M14.3472727,5.17890909 C15.2563636,5.17890909 15.9999636,5.92394545 15.9999636,6.8316 C15.9999636,7.74069091 15.2563636,8.48429091 14.3472727,8.48429091 C13.4381818,8.48429091 12.6945818,7.74069091 12.6945818,6.8316 C12.6945818,5.92392727 13.4381818,5.17890909 14.3472727,5.17890909 Z M11.8252727,1.488 C12.8359273,1.488 13.662,2.314 13.662,3.32472727 C13.662,4.33545455 12.836,5.16145455 11.8252727,5.16145455 C10.8146182,5.16145455 9.98854545,4.33545455 9.98854545,3.32472727 C9.98854545,2.314 10.8145455,1.488 11.8252727,1.488 Z M6.91981818,0.156963636 C8.03132727,0.156963636 8.93963636,1.06605455 8.93963636,2.17678182 C8.93963636,3.28970909 8.03054545,4.19878182 6.91981818,4.19878182 C5.80689091,4.19878182 4.89781818,3.28969091 4.89781818,2.17678182 C4.89781818,1.06527273 5.80690909,0.156963636 6.91981818,0.156963636 Z M2.20527273,2.96581818 C3.41834545,2.96581818 4.41054545,3.95658182 4.41054545,5.17109091 C4.41054545,6.38416364 3.41836364,7.37636364 2.20527273,7.37636364 C0.990781818,7.37636364 8.65973959e-14,6.38347273 8.65973959e-14,5.17109091 C8.65973959e-14,3.9566 0.991472727,2.96581818 2.20527273,2.96581818 Z" id="Shape"></path>
                        </g>
                    </g>
                </g>
            </g>
        </g>
    </g>
</svg>