<?xml version="1.0" encoding="UTF-8"?>
<svg width="24px" height="24px" viewBox="0 0 24 24" version="1.1" xmlns="http://www.w3.org/2000/svg" xmlns:xlink="http://www.w3.org/1999/xlink">
    <title>C9274795-ED8D-4826-8F2C-6626AF26B604</title>
    <g id="🔥-Presentation" stroke="none" stroke-width="1" fill="none" fill-rule="evenodd">
        <g id="Buttons" transform="translate(-344.000000, -4720.000000)">
            <g id="Tertiary" transform="translate(76.000000, 3728.000000)">
                <g id="Icons" transform="translate(4.000000, 920.000000)">
                    <rect id="Rectangle" fill="#37474F" x="0" y="0" width="696" height="120"></rect>
                    <g id="All/Icon/Pen" transform="translate(264.000000, 72.000000)" fill="#FFFFFF">
                        <path d="M16,6.41421356 L7,15.4142136 L7,17.5857864 L9.17157288,17.5857864 L18.1715729,8.58578644 L16,6.41421356 Z M20.2928932,9.29289322 L10.2928932,19.2928932 C10.1053568,19.4804296 9.85100293,19.5857864 9.58578644,19.5857864 L6,19.5857864 C5.44771525,19.5857864 5,19.1380712 5,18.5857864 L5,15 C5,14.7347835 5.10535684,14.4804296 5.29289322,14.2928932 L15.2928932,4.29289322 C15.6834175,3.90236893 16.3165825,3.90236893 16.7071068,4.29289322 L20.2928932,7.87867966 C20.6834175,8.26920395 20.6834175,8.90236893 20.2928932,9.29289322 Z" id="Icon"></path>
                    </g>
                </g>
            </g>
        </g>
    </g>
</svg>