<?xml version="1.0" encoding="UTF-8"?>
<svg width="24px" height="24px" viewBox="0 0 24 24" version="1.1" xmlns="http://www.w3.org/2000/svg" xmlns:xlink="http://www.w3.org/1999/xlink">
    <title>49C70E4E-99D3-40BA-B2D9-2D2DF6FDD6DE</title>
    <g id="🔥-Presentation" stroke="none" stroke-width="1" fill="none" fill-rule="evenodd">
        <g id="Buttons" transform="translate(-392.000000, -4720.000000)">
            <g id="Tertiary" transform="translate(76.000000, 3728.000000)">
                <g id="Icons" transform="translate(4.000000, 920.000000)">
                    <rect id="Rectangle" fill="#37474F" x="0" y="0" width="696" height="120"></rect>
                    <g id="All/Icon/Phone" transform="translate(312.000000, 72.000000)" fill="#FFFFFF">
                        <path d="M16.6476667,13.6414633 C16.1431136,13.6414633 15.7772128,13.8042654 14.4305645,14.513737 C14.3580771,14.5495198 14.3580771,14.5495198 14.2637998,14.5970315 L14.243372,14.6073504 C14.1911375,14.6337502 14.1449344,14.6570979 14.1040355,14.6777576 C14.0190027,14.6240214 13.9239077,14.5562518 13.8210094,14.4741903 C13.3443915,14.0940875 12.8134186,13.50289 12.25931,12.6755471 C11.510772,11.5212613 11.1293808,10.444142 11.0537409,9.78983331 C11.213365,9.7067882 11.4108299,9.60853206 11.5865853,9.52740166 C12.6148697,9.04698633 12.9113554,8.85730629 13.139989,8.35846922 C13.3634548,7.80820278 13.2063044,7.27496437 12.7777672,6.29208711 C12.5623164,5.79793705 12.3206342,5.31013583 12.0389727,4.77178706 C11.3914385,3.57722713 11.0299231,3.15750326 10.4120137,3.02242678 L10.2042086,3 L10.1002825,3 C9.1133941,3 5.81433663,5.37625819 5.60948505,6.28455296 C5.62400643,6.21752093 5.64325123,6.16399211 5.65731264,6.13520701 L5.65393587,6.14763313 C5.63383281,6.18926723 5.6158958,6.23169175 5.59722373,6.28577047 L5.59060634,6.30543396 C4.41314331,9.3063836 5.00749398,12.745938 7.27310819,16.1767311 C8.40447471,17.8738908 9.40795879,19.0279013 10.7549703,19.8669969 C11.7075239,20.4565698 12.644221,20.8081722 13.6664593,20.9497825 C13.9700281,20.9841004 14.1755757,21 14.382282,21 C14.7460797,21 15.080184,20.9681815 15.4076864,20.8939331 C16.4381721,20.7258046 17.4304189,20.3057296 18.7417963,19.5657869 C18.8138371,19.5350532 18.8795008,19.4963157 18.9409338,19.452001 C19.0136467,19.4147816 19.0688314,19.3842497 19.1363068,19.3432806 C19.5052717,19.1192556 19.7819264,18.8342087 19.9026758,18.4306792 C20.1691997,17.8344232 19.9011317,17.2011046 18.9395931,15.7135165 C18.0070886,14.2704139 17.5513677,13.7878309 16.9399805,13.6801691 C16.860468,13.6578118 16.7630924,13.6414633 16.6476667,13.6414633 Z M17.3059906,16.5821811 C17.6626823,17.1396845 17.8865628,17.5315939 18,17.7785138 L17.9846517,17.7873343 C17.9697957,17.7949165 17.9528495,17.8034556 17.9331484,17.8133108 L17.8071347,17.8763471 L17.7737561,17.9084589 C16.644688,18.5539577 15.8340558,18.9023997 15.0281743,19.0365828 C14.8002928,19.0870189 14.6106707,19.1052632 14.3863989,19.1052632 C14.2718154,19.1052632 14.1282658,19.0940452 13.9200253,19.0704945 C13.2103988,18.9708457 12.5366365,18.7153416 11.8165767,18.2650936 C10.77225,17.6078625 9.92266492,16.6207999 8.94304217,15.1361882 C7.00577888,12.1724626 6.51916668,9.32747132 7.47412383,6.86545706 C7.4896471,6.82208757 7.4896471,6.82208757 7.48857872,6.8252404 C7.45837473,6.91361688 7.50398015,6.83210707 7.53927912,6.6974118 C7.52187222,6.76856767 7.51442196,6.77995346 7.51332847,6.78120597 C7.57325181,6.71256832 7.66938794,6.61769971 7.79366291,6.50603874 C8.05340917,6.27265691 8.41117241,5.98782815 8.7959667,5.70773617 C9.18169599,5.4269636 9.56733398,5.17077363 9.87792409,4.98941634 C9.93791693,4.95438581 9.99413788,4.92272596 10.045904,4.89473684 C10.1473931,5.04983199 10.2773833,5.27227492 10.4379039,5.57139164 C10.6914534,6.06119498 10.914139,6.51527134 11.1058726,6.95954195 C11.2169999,7.21703755 11.3028314,7.43971571 11.3577182,7.61439825 C11.2414232,7.67690008 11.0748237,7.75896017 10.8316778,7.87372774 C10.2979093,8.12264041 9.80550448,8.38466581 9.57421084,8.58671986 L9.32166058,8.80734331 L9.27695967,9.13428251 C9.14180009,10.1228298 9.61400746,11.8226454 10.7384569,13.5741975 C11.9380796,15.3839355 13.213746,16.4117302 14.0531052,16.4891496 L14.2798757,16.5100661 L14.4905945,16.4260764 C14.5981435,16.3832088 14.4807931,16.4424063 15.1082168,16.1220429 L15.127592,16.1121552 C15.2159284,16.0671823 15.2159284,16.0671823 15.299694,16.0250772 C15.9287866,15.6904718 16.3054777,15.5049648 16.4862177,15.4217403 C16.6683528,15.6313322 16.938465,16.0075722 17.3059906,16.5821811 Z" id="Icon"></path>
                    </g>
                </g>
            </g>
        </g>
    </g>
</svg>