<?xml version="1.0" encoding="UTF-8"?>
<svg width="24px" height="24px" viewBox="0 0 24 24" version="1.1" xmlns="http://www.w3.org/2000/svg" xmlns:xlink="http://www.w3.org/1999/xlink">
    <title>A464F8C5-B128-4DE1-A809-341FB101F68D</title>
    <g id="🔥-Presentation" stroke="none" stroke-width="1" fill="none" fill-rule="evenodd">
        <g id="Buttons" transform="translate(-440.000000, -4720.000000)">
            <g id="Tertiary" transform="translate(76.000000, 3728.000000)">
                <g id="Icons" transform="translate(4.000000, 920.000000)">
                    <rect id="Rectangle" fill="#37474F" x="0" y="0" width="696" height="120"></rect>
                    <g id="All/Icon/Play" transform="translate(360.000000, 72.000000)" fill="#FFFFFF">
                        <path d="M19.0083333,4 L6.99166667,4 C6.20271799,4 5.47142297,4.29382146 4.90339921,4.84155586 C4.30925605,5.41448901 4,6.1765851 4,7 L4.00634981,7.21335314 C4.03618426,7.70763331 4.1725602,8.17570118 4.4451707,8.58804157 L4.51,8.678 L10.2745761,18.6360857 L10.4295527,18.8021328 C11.132999,19.5558291 12.0081817,20 13,20 C13.9918183,20 14.867001,19.5558291 15.5704473,18.8021328 L15.7277811,18.63356 L21.4426261,8.68360664 C21.7945232,8.10673786 22,7.62239963 22,7 C22,6.17658318 21.6907442,5.41448477 21.0966106,4.84156533 C20.5285714,4.29382027 19.7972806,4 19.0083333,4 Z M19.0083333,6 C19.2805568,6 19.5138864,6.093748 19.7083333,6.281248 C19.9027803,6.468752 20,6.708332 20,7 C20,7.13889067 19.9027778,7.36805733 19.7083333,7.6875 L14.1083333,17.4375 C13.7583333,17.8125019 13.3888901,18 13,18 C12.6111099,18 12.2416667,17.8125019 11.8916667,17.4375 L6.175,7.5625 C6.05833274,7.4375 6,7.25 6,7 C6,6.708332 6.09722126,6.468752 6.29166667,6.281248 C6.48611211,6.093748 6.7194432,6 6.99166667,6 L19.0083333,6 Z" id="Play-Icon" transform="translate(13.000000, 12.000000) rotate(-90.000000) translate(-13.000000, -12.000000) "></path>
                    </g>
                </g>
            </g>
        </g>
    </g>
</svg>