<?xml version="1.0" encoding="UTF-8"?>
<svg width="24px" height="24px" viewBox="0 0 24 24" version="1.1" xmlns="http://www.w3.org/2000/svg" xmlns:xlink="http://www.w3.org/1999/xlink">
    <title>340CE1CA-F8DF-4A50-B0AE-4A42E328818A</title>
    <g id="🔥-Presentation" stroke="none" stroke-width="1" fill="none" fill-rule="evenodd">
        <g id="Buttons" transform="translate(-584.000000, -4720.000000)">
            <g id="Tertiary" transform="translate(76.000000, 3728.000000)">
                <g id="Icons" transform="translate(4.000000, 920.000000)">
                    <rect id="Rectangle" fill="#37474F" x="0" y="0" width="696" height="120"></rect>
                    <g id="All/Icon/Star-(Full)" transform="translate(504.000000, 72.000000)" fill="#FFFFFF">
                        <path d="M11.5203828,18.7961373 L6.62328364,21.3810483 C6.12334642,21.6449378 5.50336409,21.4550527 5.23851435,20.956928 C5.13201312,20.7566224 5.09546318,20.5266918 5.1346288,20.3033985 L5.99525701,15.3967342 C6.11213211,14.730399 5.89013812,14.0496488 5.40249705,13.5790207 L1.81167511,10.1134764 C1.40529894,9.72127802 1.39496246,9.07509978 1.78858794,8.67019692 C1.94687239,8.50737761 2.15505051,8.40169012 2.38029066,8.36980236 L7.3297344,7.66909829 C8.00187913,7.57394123 8.58306693,7.15321446 8.88160013,6.54568956 L11.0798964,2.07208419 C11.3286793,1.56580271 11.9422733,1.35632772 12.450397,1.60420869 C12.6547234,1.70388645 12.8199345,1.86849857 12.9199749,2.07208419 L15.1182712,6.54568956 C15.4168044,7.15321446 15.9979922,7.57394123 16.6701369,7.66909829 L21.6195807,8.36980236 C22.1797131,8.4491016 22.5692716,8.96581717 22.4896838,9.5239189 C22.45768,9.74834245 22.351608,9.95576582 22.1881962,10.1134764 L18.5973743,13.5790207 C18.1097332,14.0496488 17.8877392,14.730399 18.0046143,15.3967342 L18.8652425,20.3033985 C18.9626405,20.8586896 18.5898068,21.3875124 18.0324952,21.4845572 C17.8083894,21.5235808 17.5776221,21.4871634 17.3765877,21.3810483 L12.4794885,18.7961373 C12.1795326,18.6378069 11.8203388,18.6378069 11.5203828,18.7961373 Z" id="Star"></path>
                    </g>
                </g>
            </g>
        </g>
    </g>
</svg>