<?xml version="1.0" encoding="UTF-8"?>
<svg width="24px" height="24px" viewBox="0 0 24 24" version="1.1" xmlns="http://www.w3.org/2000/svg" xmlns:xlink="http://www.w3.org/1999/xlink">
    <title>795A87C3-6AD9-42FC-99D8-9C052DEC6CCF</title>
    <g id="🔥-Presentation" stroke="none" stroke-width="1" fill="none" fill-rule="evenodd">
        <g id="Buttons" transform="translate(-680.000000, -4720.000000)">
            <g id="Tertiary" transform="translate(76.000000, 3728.000000)">
                <g id="Icons" transform="translate(4.000000, 920.000000)">
                    <rect id="Rectangle" fill="#37474F" x="0" y="0" width="696" height="120"></rect>
                    <g id="All/Icon/Undo" transform="translate(600.000000, 72.000000)" fill="#FFFFFF">
                        <path d="M17.364947,7.51276394 L19,5.87662542 L19,10.6892265 L14.1905919,10.6892265 L15.8085934,9.07015081 C14.9039875,7.89718868 13.5108623,7.20679918 12.0301475,7.19702814 C10.5500158,7.18791337 9.14785471,7.86126918 8.22896629,9.02289982 C7.31012159,10.1844575 6.97709194,11.7043936 7.32606551,13.1439447 C7.67503907,14.5835103 8.66732197,15.7821251 10.0153991,16.3933254 C11.3640591,17.0045841 12.9188241,16.9607165 14.2298979,16.2736944 C14.7824707,17.0045841 14.7824707,17.0045841 15.5615195,18.0219809 C13.7033391,19.1242999 11.4404398,19.3048891 9.43083591,18.5124725 C7.42123203,17.720056 5.88980021,16.0428791 5.28235739,13.9687939 C4.67491459,11.8945628 5.05920086,9.65582832 6.32302556,7.90287484 C7.58743352,6.15050471 9.58963382,5.0802114 11.7484751,5.00437648 C13.9071706,4.92803987 15.9806084,5.85375681 17.3651365,7.51261665 L17.364947,7.51276394 Z" id="Reload" transform="translate(12.000000, 12.000000) scale(-1, 1) translate(-12.000000, -12.000000) "></path>
                    </g>
                </g>
            </g>
        </g>
    </g>
</svg>